<svg xmlns="http://www.w3.org/2000/svg" viewBox="0 0 1000 1000"><rect width="1000" height="1000" fill="#d3b"/><defs><radialGradient id="a" cx="500" cy="500" r="50%" gradientUnits="userSpaceOnUse"><stop offset="0" stop-color="#d3b"/><stop offset="1" stop-color="#404"/></radialGradient><radialGradient id="b" cx="500" cy="500" r="60%" gradientUnits="userSpaceOnUse"><stop offset="0" stop-color="#F70" stop-opacity="1"/><stop offset="1" stop-color="#F70" stop-opacity="0"/></radialGradient></defs><rect width="1000" height="1000" fill="url(#a)"/><g fill="none" stroke="#B94A88" stroke-miterlimit="10" stroke-opacity=".42" stroke-width="1"><rect width="975" height="975" x="12.5" y="12.5"/><rect width="950" height="950" x="25" y="25"/><rect width="925" height="925" x="37.5" y="37.5"/><rect width="900" height="900" x="50" y="50"/><rect width="875" height="875" x="62.5" y="62.5"/><rect width="850" height="850" x="75" y="75"/><rect width="825" height="825" x="87.5" y="87.5"/><rect width="800" height="800" x="100" y="100"/><rect width="775" height="775" x="112.5" y="112.5"/><rect width="750" height="750" x="125" y="125"/><rect width="725" height="725" x="137.5" y="137.5"/><rect width="700" height="700" x="150" y="150"/><rect width="675" height="675" x="162.5" y="162.5"/><rect width="650" height="650" x="175" y="175"/><rect width="625" height="625" x="187.5" y="187.5"/><rect width="600" height="600" x="200" y="200"/><rect width="575" height="575" x="212.5" y="212.5"/><rect width="550" height="550" x="225" y="225"/><rect width="525" height="525" x="237.5" y="237.5"/><rect width="500" height="500" x="250" y="250"/><rect width="475" height="475" x="262.5" y="262.5"/><rect width="450" height="450" x="275" y="275"/><rect width="425" height="425" x="287.5" y="287.5"/><rect width="400" height="400" x="300" y="300"/><rect width="375" height="375" x="312.5" y="312.5"/><rect width="350" height="350" x="325" y="325"/><rect width="325" height="325" x="337.5" y="337.5"/><rect width="300" height="300" x="350" y="350"/><rect width="275" height="275" x="362.5" y="362.5"/><rect width="250" height="250" x="375" y="375"/><rect width="225" height="225" x="387.5" y="387.5"/><rect width="200" height="200" x="400" y="400"/><rect width="175" height="175" x="412.5" y="412.5"/><rect width="150" height="150" x="425" y="425"/><rect width="125" height="125" x="437.5" y="437.5"/><rect width="100" height="100" x="450" y="450"/><rect width="75" height="75" x="462.5" y="462.5"/><rect width="50" height="50" x="475" y="475"/><rect width="25" height="25" x="487.5" y="487.5"/></g><rect width="1000" height="1000" fill="url(#b)" fill-opacity=".42"/></svg>